PathFileType	4	(X/Y/Z)	C:/Users/opensim2020/Desktop/walking_exp_matlab/subject06_cal10_run.trc	
DataRate	CameraRate	NumFrames	NumMarkers	Units	OrigDataRate	OrigDataStartFrame	OrigNumFrames	
100.00	100.00	6	49	mm	100.00	272	118	
Frame#	Time	LKNE			RTIB			RFRM			RWRA			LTHI			RKNE			RELB			RFHD			LWRA			RUPA			STRN			RASI			CLAV			RSHO			LASI			RTHI			RBHD			LBHD			C7			RWRB			RFIN			RTOE			LSHO			RBAK			LTIB			RANK			LFIN			LANK			RHEE			T10			LHEE			LTOE			LFHD			LPSI			RPSI			LUPA			LELB			LFRM			LWRB			*39			*40			*41			*42			*43			*44			*45			*46			*47			*48			
		X1	Y1	Z1	X2	Y2	Z2	X3	Y3	Z3	X4	Y4	Z4	X5	Y5	Z5	X6	Y6	Z6	X7	Y7	Z7	X8	Y8	Z8	X9	Y9	Z9	X10	Y10	Z10	X11	Y11	Z11	X12	Y12	Z12	X13	Y13	Z13	X14	Y14	Z14	X15	Y15	Z15	X16	Y16	Z16	X17	Y17	Z17	X18	Y18	Z18	X19	Y19	Z19	X20	Y20	Z20	X21	Y21	Z21	X22	Y22	Z22	X23	Y23	Z23	X24	Y24	Z24	X25	Y25	Z25	X26	Y26	Z26	X27	Y27	Z27	X28	Y28	Z28	X29	Y29	Z29	X30	Y30	Z30	X31	Y31	Z31	X32	Y32	Z32	X33	Y33	Z33	X34	Y34	Z34	X35	Y35	Z35	X36	Y36	Z36	X37	Y37	Z37	X38	Y38	Z38	X39	Y39	Z39	X40	Y40	Z40	X41	Y41	Z41	X42	Y42	Z42	X43	Y43	Z43	X44	Y44	Z44	X45	Y45	Z45	X46	Y46	Z46	X47	Y47	Z47	X48	Y48	Z48	X49	Y49	Z49	

104	1.030	157.06160	1924.74854	431.95251	403.33624	1952.13013	249.11026	546.76624	1785.08142	1060.84827	479.16864	1909.00610	1081.81482	132.60880	1912.88562	592.46765	408.18927	2011.45618	503.56772	565.91669	1696.60156	1115.64746	372.72552	1929.23438	1621.28308	159.71785	1987.58728	1133.43213	539.12036	1725.79468	1216.63916	296.13239	1962.56824	1161.86316	407.87354	1921.49365	930.70813	302.07867	1920.87305	1339.37512	451.59250	1841.23608	1368.35620	192.70363	1946.73523	915.31189	448.80948	1958.64478	616.78003	364.89288	1799.28064	1566.99463	235.79037	1803.98230	1570.47839	287.62103	1807.45813	1412.75085	505.40524	1906.32971	1020.37726	495.41409	1985.85815	1043.82422	315.68246	2022.83569	32.93606	136.42249	1877.74048	1382.67078	339.10367	1726.39063	1240.27136	149.96562	1703.15320	340.50912	352.64279	1878.91956	77.72555	199.11855	2068.39307	1104.50513	172.30939	1545.76331	275.79526	318.47592	1824.49182	63.15968	271.33389	1774.01526	1084.71326	222.39732	1511.67236	294.89392	150.11404	1589.09302	142.94604	240.33313	1935.37549	1630.91992	194.37137	1790.54993	947.63202	365.31647	1772.31470	956.30981	30.00820	1847.39050	1210.78162	-4.53114	1823.37451	1114.61255	64.05173	1927.76672	1073.77502	153.76418	2002.23145	1063.96472							294.81339	1830.61377	1665.81372																					 
105	1.040	156.59230	1985.95117	431.47256	400.86896	1962.48523	242.51480	547.67822	1837.78711	1049.37622	476.56851	1958.86707	1072.29016	131.63257	1965.26123	591.41168	406.79587	2037.28674	494.09027	570.43732	1749.18616	1101.93298	373.34381	1966.14160	1617.31311	155.63583	2021.12317	1118.37488	544.23328	1773.72363	1204.35986	295.51749	2000.08691	1155.78223	408.85367	1956.59021	921.72400	302.19092	1959.48157	1334.20789	454.05316	1882.35364	1362.14673	193.05354	1982.37024	908.85211	447.52072	1990.32141	610.07269	366.69409	1836.90356	1561.10522	237.20792	1840.26331	1564.58691	289.23596	1846.49585	1409.10327	502.16306	1957.44971	1010.64844	488.97531	2035.86865	1034.93628	315.10223	2022.14990	32.78696	136.18283	1915.27869	1376.15381	342.54202	1763.92859	1236.50879	149.11639	1767.45117	336.97757	349.94052	1879.10071	76.05338	190.43982	2103.16357	1085.75183	171.64998	1610.90930	269.22211	315.20471	1823.95276	63.93008	273.49173	1811.24072	1080.18604	221.46944	1575.70117	287.07278	149.12781	1659.37903	138.53035	240.80943	1970.81702	1626.95068	193.66623	1825.15930	940.92151	364.81830	1808.25623	950.89777	31.32299	1876.37158	1204.75525	-3.56731	1849.92004	1108.59583	60.47678	1956.04700	1063.93787	146.37225	2033.77039	1048.95496							296.31448	1866.05457	1660.21631																					 
106	1.050	155.93446	2046.60535	435.51270	398.14688	1969.37659	236.32884	547.69043	1891.10718	1041.06982	472.20798	2008.44006	1066.68469	129.75531	2016.27698	593.58105	406.56696	2059.40918	485.17987	573.61823	1802.73730	1091.87439	373.88547	2003.15710	1614.24756	150.82234	2053.83447	1105.65967	547.01434	1821.20618	1196.54077	294.76846	2037.79675	1151.84167	408.66812	1992.24548	915.34692	301.83734	1996.69556	1330.37878	455.97638	1923.82605	1358.03528	191.96266	2018.36133	904.09692	446.34265	2018.55750	603.44940	368.30130	1874.55957	1556.31799	238.58446	1876.42212	1560.08765	290.44473	1885.55286	1407.06128	496.97510	2008.52710	1003.60742	483.00052	2086.15625	1030.42065	314.58969	2021.60205	32.64217	136.37857	1952.59399	1371.71008	346.81281	1801.37097	1234.34692	149.04527	1831.86914	334.77762	347.23355	1878.75684	75.95653	180.76443	2136.22241	1069.16223	172.02670	1677.16150	261.82635	312.23969	1823.95581	66.25975	275.87570	1847.68896	1078.95947	221.89696	1640.99841	277.89941	148.56113	1731.29285	133.81273	241.31697	2006.23914	1623.91931	193.85991	1860.42419	937.48737	364.15341	1845.28357	949.24634	33.31829	1905.37036	1202.23511	-2.39181	1875.49744	1106.20361	56.69305	1983.09546	1056.52856	138.71034	2063.59229	1036.38428							297.81485	1901.82422	1655.84326																					 
107	1.060	155.17325	2105.90552	443.07419	396.28711	1976.67883	231.64421	546.87781	1944.46204	1036.81030	467.75043	2057.21631	1065.43262	127.53869	2065.30029	598.27045	406.73083	2079.68530	476.67181	576.01288	1855.80591	1086.39258	374.37402	2040.39099	1612.47485	145.73434	2085.38281	1096.04639	549.95496	1868.87427	1191.75110	293.78024	2076.06567	1149.94104	408.04919	2029.80798	912.47687	301.69705	2034.85278	1328.61951	457.09586	1965.55750	1356.11011	190.09515	2053.71533	901.68903	445.59930	2043.74963	596.79468	369.60782	1912.37329	1552.97522	240.44560	1913.42383	1556.83191	291.59647	1923.40332	1405.65820	492.70700	2059.66504	1002.33496	474.61151	2135.61426	1030.01550	314.36072	2021.08521	32.44826	137.28102	1988.34448	1369.52527	351.40747	1839.83264	1233.29883	149.46436	1896.23022	333.53891	345.40219	1879.12292	77.33395	170.32924	2167.65234	1055.86548	173.28462	1744.49780	253.58112	309.93842	1824.47083	69.88351	278.10992	1884.12891	1078.02539	223.35844	1707.59924	267.58441	148.55334	1805.68201	129.53703	241.57227	2041.94421	1622.26355	194.67456	1896.41333	937.31097	363.93167	1882.95190	949.53851	34.85980	1934.14954	1202.06982	-0.35798	1900.25000	1107.99414	52.84295	2009.30078	1051.14917	131.12621	2091.78979	1026.81421							299.11609	1937.85254	1652.86890																					 
108	1.070	154.48834	2163.64868	453.31213	395.26666	1983.88635	229.81395	545.53900	1996.42712	1036.64087	462.05835	2104.44116	1067.95569	125.47029	2112.27124	604.73566	406.73825	2098.21094	469.15820	578.02539	1907.28748	1084.30127	374.75861	2077.83374	1612.46082	139.98006	2116.03516	1089.71130	553.16864	1916.69336	1189.51208	292.27231	2114.24512	1149.98230	407.03568	2067.96680	911.48883	301.07230	2073.21362	1328.59888	457.91611	2007.46936	1356.28711	187.91870	2088.91333	902.20764	444.79037	2066.67700	590.62512	370.80133	1950.28748	1551.60999	241.70642	1950.32678	1555.82312	293.14804	1960.79041	1404.52307	487.90717	2109.83472	1005.62622	467.03204	2184.02344	1035.86768	314.15198	2020.39404	32.20117	138.09219	2022.44312	1369.61121	355.53561	1879.19568	1233.68835	150.21761	1960.15515	333.19553	344.44931	1879.84680	80.00254	159.92163	2197.51831	1046.13123	175.28004	1812.76367	244.71893	308.34509	1825.33740	74.61674	280.67441	1922.42029	1077.35376	225.67932	1775.48120	256.44931	149.99916	1880.98047	124.36884	241.87560	2077.81714	1622.45190	195.87326	1932.73218	939.14038	365.28964	1923.22424	949.98267	36.10842	1962.46179	1204.17639	1.38929	1925.62463	1112.06201	48.99511	2034.74890	1048.38000	123.80072	2118.97583	1020.51056							300.25479	1974.10559	1651.80164																					 
109	1.080	153.85979	2219.43848	466.02982	395.30356	1990.74976	230.40454	543.98761	2046.14441	1040.28772	457.15256	2150.09790	1075.16467	123.79094	2157.34204	612.74579	406.87436	2114.92993	463.72055	579.90643	1957.22217	1084.57898	374.89813	2115.45361	1614.33020	133.92691	2145.76318	1086.53259	555.97607	1964.32617	1189.82910	290.11127	2152.20557	1151.97937	406.09015	2106.35645	911.88196	300.03857	2111.62378	1330.50024	458.63651	2049.61377	1358.44922	186.60521	2124.91455	905.25403	443.41046	2088.14917	586.61981	371.87796	1988.28760	1552.62292	242.91789	1987.27258	1557.15918	295.40881	1997.97144	1405.30920	482.46347	2158.55371	1013.06775	458.56873	2230.74707	1045.99231	314.08917	2019.67786	31.92795	138.50305	2054.82251	1371.58484	359.15320	1919.10413	1235.76221	151.50323	2023.33130	333.63504	344.24667	1881.20081	84.12590	150.15741	2225.99585	1039.93140	178.13435	1882.08350	235.38425	308.04959	1826.62476	80.95477	283.16113	1961.03088	1078.38391	228.66069	1844.32068	245.04677	152.65924	1958.16040	119.80492	241.90477	2115.01978	1625.00806	197.26816	1969.54138	942.27301	366.57639	1961.04248	952.40186	37.47057	1990.32019	1208.13025	2.78915	1951.25708	1117.34802	45.09386	2059.69727	1048.80225	116.27208	2145.83423	1017.63916							301.35864	2010.69983	1652.87927																					 
